<svg xmlns="http://www.w3.org/2000/svg" xmlns:xlink="http://www.w3.org/1999/xlink" width="107" height="48" viewBox="0 0 107 48">
  <defs>
    <clipPath id="clip-path">
      <rect id="長方形_1569" data-name="長方形 1569" width="107" height="48" transform="translate(97 46)" fill="#fff" stroke="#707070" stroke-width="1"/>
    </clipPath>
  </defs>
  <g id="マスクグループ_3" data-name="マスクグループ 3" transform="translate(-97 -46)" clip-path="url(#clip-path)">
    <g id="logo2_b" transform="translate(150.651 74.597)">
      <g id="グループ_40" data-name="グループ 40" transform="translate(-53.183 -28.259)">
        <path id="パス_265" data-name="パス 265" d="M48.327,11.865l2.351-2.439v2.439Z" transform="translate(0 0.352)" fill="#1a1311"/>
        <path id="パス_266" data-name="パス 266" d="M50.678,9.515l2.351-2.439V9.515Z" transform="translate(0 0.264)" fill="#1a1311"/>
        <path id="パス_267" data-name="パス 267" d="M53.029,9.426l-2.351,2.439V9.426Z" transform="translate(0 0.352)" fill="#1a1311"/>
        <path id="パス_268" data-name="パス 268" d="M55.38,7.073,53.029,9.512V7.073Z" transform="translate(0 0.264)" fill="#1a1311"/>
        <path id="パス_269" data-name="パス 269" d="M53.029,7.163,55.38,4.725V7.163Z" transform="translate(0 0.177)" fill="#1a1311"/>
        <path id="パス_270" data-name="パス 270" d="M57.73,4.725,55.38,7.163V4.725Z" transform="translate(0 0.177)" fill="#1a1311"/>
        <path id="パス_271" data-name="パス 271" d="M92.261,25.894,89.91,28.333V25.894Z" transform="translate(0 0.968)" fill="#1a1311"/>
        <path id="パス_272" data-name="パス 272" d="M94.611,23.549l-2.35,2.438V23.549Z" transform="translate(0 0.88)" fill="#1a1311"/>
        <path id="パス_273" data-name="パス 273" d="M104.014,21.189l-2.35,2.439V21.189Z" transform="translate(0 0.792)" fill="#1a1311"/>
        <path id="パス_274" data-name="パス 274" d="M89.91,25.99l2.351-2.439V25.99Z" transform="translate(0 0.88)" fill="#1a1311"/>
        <path id="パス_275" data-name="パス 275" d="M89.91,25.894l-2.351,2.439V25.894Z" transform="translate(0 0.968)" fill="#1a1311"/>
        <path id="パス_276" data-name="パス 276" d="M104.014,25.979l2.351-2.439v2.439Z" transform="translate(0 0.88)" fill="#1a1311"/>
        <path id="パス_277" data-name="パス 277" d="M104.015,9.525l2.35-2.439V9.525Z" transform="translate(0 0.265)" fill="#1a1311"/>
        <path id="パス_278" data-name="パス 278" d="M99.313,23.627l2.351-2.439v2.439Z" transform="translate(0 0.792)" fill="#1a1311"/>
        <path id="パス_279" data-name="パス 279" d="M96.962,23.633l-2.351-2.439h2.351Z" transform="translate(0 0.792)" fill="#1a1311"/>
        <path id="パス_280" data-name="パス 280" d="M96.962,21.194l2.351,2.439H96.962Z" transform="translate(0 0.792)" fill="#1a1311"/>
        <path id="パス_281" data-name="パス 281" d="M50.678,21.193l-2.351,2.438V21.193Z" transform="translate(0 0.792)" fill="#1a1311"/>
        <path id="パス_282" data-name="パス 282" d="M82.857,25.894l-2.35,2.439V25.894Z" transform="translate(0 0.968)" fill="#1a1311"/>
        <rect id="長方形_902" data-name="長方形 902" width="2.351" height="2.439" transform="translate(80.507 0.035)" fill="#1a1311"/>
        <rect id="長方形_903" data-name="長方形 903" width="2.351" height="2.439" transform="translate(80.507 2.474)" fill="#1a1311"/>
        <rect id="長方形_904" data-name="長方形 904" width="2.351" height="2.439" transform="translate(80.507 4.912)" fill="#1a1311"/>
        <rect id="長方形_905" data-name="長方形 905" width="2.351" height="2.439" transform="translate(80.507 7.351)" fill="#1a1311"/>
        <rect id="長方形_906" data-name="長方形 906" width="2.351" height="2.439" transform="translate(80.507 9.79)" fill="#1a1311"/>
        <rect id="長方形_907" data-name="長方形 907" width="2.351" height="2.439" transform="translate(80.507 12.228)" fill="#1a1311"/>
        <rect id="長方形_908" data-name="長方形 908" width="2.351" height="2.439" transform="translate(80.507 14.667)" fill="#1a1311"/>
        <rect id="長方形_909" data-name="長方形 909" width="2.351" height="2.439" transform="translate(80.507 17.106)" fill="#1a1311"/>
        <rect id="長方形_910" data-name="長方形 910" width="2.351" height="2.439" transform="translate(80.507 19.544)" fill="#1a1311"/>
        <rect id="長方形_911" data-name="長方形 911" width="2.351" height="2.439" transform="translate(80.507 21.983)" fill="#1a1311"/>
        <rect id="長方形_912" data-name="長方形 912" width="2.351" height="2.439" transform="translate(80.507 24.422)" fill="#1a1311"/>
        <rect id="長方形_913" data-name="長方形 913" width="2.351" height="2.439" transform="translate(82.857 0.035)" fill="#1a1311"/>
        <rect id="長方形_914" data-name="長方形 914" width="2.351" height="2.439" transform="translate(82.857 7.351)" fill="#1a1311"/>
        <rect id="長方形_915" data-name="長方形 915" width="2.351" height="2.439" transform="translate(85.208 0.035)" fill="#1a1311"/>
        <rect id="長方形_916" data-name="長方形 916" width="2.351" height="2.439" transform="translate(85.208 7.351)" fill="#1a1311"/>
        <rect id="長方形_917" data-name="長方形 917" width="2.351" height="2.439" transform="translate(85.208 12.228)" fill="#1a1311"/>
        <rect id="長方形_918" data-name="長方形 918" width="2.351" height="2.439" transform="translate(85.208 17.106)" fill="#1a1311"/>
        <rect id="長方形_919" data-name="長方形 919" width="2.351" height="2.439" transform="translate(87.559 0.035)" fill="#1a1311"/>
        <rect id="長方形_920" data-name="長方形 920" width="2.351" height="2.439" transform="translate(87.559 7.351)" fill="#1a1311"/>
        <rect id="長方形_921" data-name="長方形 921" width="2.351" height="2.439" transform="translate(87.559 12.228)" fill="#1a1311"/>
        <rect id="長方形_922" data-name="長方形 922" width="2.351" height="2.439" transform="translate(87.559 17.106)" fill="#1a1311"/>
        <rect id="長方形_923" data-name="長方形 923" width="2.351" height="2.439" transform="translate(89.91 0.035)" fill="#1a1311"/>
        <rect id="長方形_924" data-name="長方形 924" width="2.351" height="2.439" transform="translate(89.91 7.351)" fill="#1a1311"/>
        <rect id="長方形_925" data-name="長方形 925" width="2.351" height="2.439" transform="translate(89.91 9.79)" fill="#1a1311"/>
        <rect id="長方形_926" data-name="長方形 926" width="2.351" height="2.439" transform="translate(89.91 12.228)" fill="#1a1311"/>
        <rect id="長方形_927" data-name="長方形 927" width="2.351" height="2.439" transform="translate(89.91 14.667)" fill="#1a1311"/>
        <rect id="長方形_928" data-name="長方形 928" width="2.351" height="2.439" transform="translate(89.91 17.106)" fill="#1a1311"/>
        <rect id="長方形_929" data-name="長方形 929" width="2.351" height="2.439" transform="translate(87.559 19.543)" fill="#1a1311"/>
        <rect id="長方形_930" data-name="長方形 930" width="2.351" height="2.439" transform="translate(87.559 21.981)" fill="#1a1311"/>
        <rect id="長方形_931" data-name="長方形 931" width="2.351" height="2.439" transform="translate(87.559 26.854)" fill="#1a1311"/>
        <rect id="長方形_932" data-name="長方形 932" width="2.351" height="2.439" transform="translate(87.559 24.42)" fill="#1a1311"/>
        <rect id="長方形_933" data-name="長方形 933" width="2.351" height="2.439" transform="translate(92.261 0.035)" fill="#1a1311"/>
        <rect id="長方形_934" data-name="長方形 934" width="2.351" height="2.439" transform="translate(92.261 7.351)" fill="#1a1311"/>
        <rect id="長方形_935" data-name="長方形 935" width="2.351" height="2.439" transform="translate(92.261 12.228)" fill="#1a1311"/>
        <rect id="長方形_936" data-name="長方形 936" width="2.351" height="2.439" transform="translate(92.261 17.106)" fill="#1a1311"/>
        <rect id="長方形_937" data-name="長方形 937" width="2.351" height="2.439" transform="translate(94.611 0.035)" fill="#1a1311"/>
        <rect id="長方形_938" data-name="長方形 938" width="2.351" height="2.439" transform="translate(94.611 7.351)" fill="#1a1311"/>
        <rect id="長方形_939" data-name="長方形 939" width="2.351" height="2.439" transform="translate(94.611 12.228)" fill="#1a1311"/>
        <rect id="長方形_940" data-name="長方形 940" width="2.351" height="2.439" transform="translate(94.611 17.106)" fill="#1a1311"/>
        <rect id="長方形_941" data-name="長方形 941" width="2.351" height="2.439" transform="translate(94.611 19.544)" fill="#1a1311"/>
        <path id="パス_283" data-name="パス 283" d="M99.313,25.98l-2.351-2.439h2.351Z" transform="translate(0 0.88)" fill="#1a1311"/>
        <path id="パス_284" data-name="パス 284" d="M101.664,28.329,99.313,25.89h2.351Z" transform="translate(0 0.968)" fill="#1a1311"/>
        <path id="パス_285" data-name="パス 285" d="M104.015,28.326l-2.351-2.439h2.351Z" transform="translate(0 0.967)" fill="#1a1311"/>
        <path id="パス_286" data-name="パス 286" d="M101.664,25.89l2.351,2.439h-2.351Z" transform="translate(0 0.968)" fill="#1a1311"/>
        <rect id="長方形_942" data-name="長方形 942" width="2.351" height="2.439" transform="translate(96.962 0.035)" fill="#1a1311"/>
        <rect id="長方形_943" data-name="長方形 943" width="2.351" height="2.439" transform="translate(96.962 7.351)" fill="#1a1311"/>
        <rect id="長方形_944" data-name="長方形 944" width="2.351" height="2.439" transform="translate(96.962 12.228)" fill="#1a1311"/>
        <rect id="長方形_945" data-name="長方形 945" width="2.351" height="2.439" transform="translate(96.962 17.106)" fill="#1a1311"/>
        <rect id="長方形_946" data-name="長方形 946" width="2.351" height="2.439" transform="translate(99.313 0.035)" fill="#1a1311"/>
        <rect id="長方形_947" data-name="長方形 947" width="2.351" height="2.439" transform="translate(99.313 7.351)" fill="#1a1311"/>
        <rect id="長方形_948" data-name="長方形 948" width="2.351" height="2.439" transform="translate(99.313 12.228)" fill="#1a1311"/>
        <rect id="長方形_949" data-name="長方形 949" width="2.351" height="2.439" transform="translate(99.313 17.106)" fill="#1a1311"/>
        <rect id="長方形_950" data-name="長方形 950" width="2.351" height="2.439" transform="translate(99.313 24.422)" fill="#1a1311"/>
        <rect id="長方形_951" data-name="長方形 951" width="2.351" height="2.439" transform="translate(101.664 0.035)" fill="#1a1311"/>
        <rect id="長方形_952" data-name="長方形 952" width="2.351" height="2.439" transform="translate(101.664 7.351)" fill="#1a1311"/>
        <rect id="長方形_953" data-name="長方形 953" width="2.351" height="2.439" transform="translate(101.664 9.79)" fill="#1a1311"/>
        <rect id="長方形_954" data-name="長方形 954" width="2.351" height="2.439" transform="translate(101.664 12.228)" fill="#1a1311"/>
        <rect id="長方形_955" data-name="長方形 955" width="2.351" height="2.439" transform="translate(101.664 14.667)" fill="#1a1311"/>
        <rect id="長方形_956" data-name="長方形 956" width="2.351" height="2.439" transform="translate(101.664 17.106)" fill="#1a1311"/>
        <rect id="長方形_957" data-name="長方形 957" width="2.351" height="2.439" transform="translate(104.015 26.854)" fill="#1a1311"/>
        <rect id="長方形_958" data-name="長方形 958" width="2.351" height="2.439" transform="translate(104.014 0.035)" fill="#1a1311"/>
        <rect id="長方形_959" data-name="長方形 959" width="2.351" height="2.439" transform="translate(104.014 2.474)" fill="#1a1311"/>
        <rect id="長方形_960" data-name="長方形 960" width="2.351" height="2.439" transform="translate(104.014 4.912)" fill="#1a1311"/>
        <rect id="長方形_961" data-name="長方形 961" width="2.351" height="2.439" transform="translate(104.014 7.351)" fill="#1a1311"/>
        <rect id="長方形_962" data-name="長方形 962" width="2.351" height="2.439" transform="translate(104.014 12.228)" fill="#1a1311"/>
        <rect id="長方形_963" data-name="長方形 963" width="2.351" height="2.439" transform="translate(104.014 17.106)" fill="#1a1311"/>
        <rect id="長方形_964" data-name="長方形 964" width="2.351" height="2.439" transform="translate(42.485 2.452)" fill="#1a1311"/>
        <rect id="長方形_965" data-name="長方形 965" width="2.351" height="2.439" transform="translate(42.485 2.452)" fill="#1a1311"/>
        <rect id="長方形_966" data-name="長方形 966" width="2.351" height="2.439" transform="translate(42.485 4.891)" fill="#1a1311"/>
        <rect id="長方形_967" data-name="長方形 967" width="2.351" height="2.439" transform="translate(42.485 7.33)" fill="#1a1311"/>
        <rect id="長方形_968" data-name="長方形 968" width="2.351" height="2.439" transform="translate(42.485 9.768)" fill="#1a1311"/>
        <rect id="長方形_969" data-name="長方形 969" width="2.351" height="2.439" transform="translate(42.485 12.207)" fill="#1a1311"/>
        <rect id="長方形_970" data-name="長方形 970" width="2.351" height="2.439" transform="translate(42.485 14.646)" fill="#1a1311"/>
        <rect id="長方形_971" data-name="長方形 971" width="2.351" height="2.439" transform="translate(42.485 17.084)" fill="#1a1311"/>
        <rect id="長方形_972" data-name="長方形 972" width="2.351" height="2.439" transform="translate(42.485 19.523)" fill="#1a1311"/>
        <rect id="長方形_973" data-name="長方形 973" width="2.351" height="2.439" transform="translate(42.485 21.962)" fill="#1a1311"/>
        <rect id="長方形_974" data-name="長方形 974" width="2.351" height="2.439" transform="translate(42.485 24.4)" fill="#1a1311"/>
        <rect id="長方形_975" data-name="長方形 975" width="2.351" height="2.439" transform="translate(42.485 26.839)" fill="#1a1311"/>
        <rect id="長方形_976" data-name="長方形 976" width="2.351" height="2.439" transform="translate(43.282 2.452)" fill="#1a1311"/>
        <rect id="長方形_977" data-name="長方形 977" width="2.351" height="2.439" transform="translate(44.835 26.838)" fill="#1a1311"/>
        <rect id="長方形_978" data-name="長方形 978" width="2.351" height="2.439" transform="translate(46.808 26.838)" fill="#1a1311"/>
        <rect id="長方形_979" data-name="長方形 979" width="2.351" height="2.439" transform="translate(48.781 26.838)" fill="#1a1311"/>
        <rect id="長方形_980" data-name="長方形 980" width="2.351" height="2.439" transform="translate(50.754 26.838)" fill="#1a1311"/>
        <rect id="長方形_981" data-name="長方形 981" width="2.351" height="2.439" transform="translate(52.728 26.838)" fill="#1a1311"/>
        <rect id="長方形_982" data-name="長方形 982" width="2.351" height="2.439" transform="translate(54.701 26.838)" fill="#1a1311"/>
        <rect id="長方形_983" data-name="長方形 983" width="2.351" height="2.439" transform="translate(56.674 26.838)" fill="#1a1311"/>
        <rect id="長方形_984" data-name="長方形 984" width="2.351" height="2.439" transform="translate(58.647 26.838)" fill="#1a1311"/>
        <rect id="長方形_985" data-name="長方形 985" width="2.351" height="2.439" transform="translate(60.62 26.838)" fill="#1a1311"/>
        <rect id="長方形_986" data-name="長方形 986" width="2.351" height="2.439" transform="translate(62.593 26.838)" fill="#1a1311"/>
        <rect id="長方形_987" data-name="長方形 987" width="2.351" height="2.439" transform="translate(64.566 26.838)" fill="#1a1311"/>
        <rect id="長方形_988" data-name="長方形 988" width="2.351" height="2.439" transform="translate(66.539 26.838)" fill="#1a1311"/>
        <rect id="長方形_989" data-name="長方形 989" width="2.351" height="2.439" transform="translate(45.633 2.452)" fill="#1a1311"/>
        <rect id="長方形_990" data-name="長方形 990" width="2.351" height="2.439" transform="translate(47.984 2.452)" fill="#1a1311"/>
        <rect id="長方形_991" data-name="長方形 991" width="2.351" height="2.439" transform="translate(48.327 12.214)" fill="#1a1311"/>
        <rect id="長方形_992" data-name="長方形 992" width="2.351" height="2.439" transform="translate(48.327 12.213)" fill="#1a1311"/>
        <rect id="長方形_993" data-name="長方形 993" width="2.351" height="2.439" transform="translate(48.327 14.652)" fill="#1a1311"/>
        <rect id="長方形_994" data-name="長方形 994" width="2.351" height="2.439" transform="translate(48.327 17.089)" fill="#1a1311"/>
        <rect id="長方形_995" data-name="長方形 995" width="2.351" height="2.439" transform="translate(48.327 19.531)" fill="#1a1311"/>
        <rect id="長方形_996" data-name="長方形 996" width="2.351" height="2.439" transform="translate(50.335 2.452)" fill="#1a1311"/>
        <rect id="長方形_997" data-name="長方形 997" width="2.351" height="2.439" transform="translate(52.685 2.452)" fill="#1a1311"/>
        <rect id="長方形_998" data-name="長方形 998" width="2.351" height="2.439" transform="translate(55.036 2.452)" fill="#1a1311"/>
        <rect id="長方形_999" data-name="長方形 999" width="2.351" height="2.439" transform="translate(57.387 2.452)" fill="#1a1311"/>
        <rect id="長方形_1000" data-name="長方形 1000" width="2.351" height="2.439" transform="translate(58.906 14.668) rotate(180)" fill="#1a1311"/>
        <rect id="長方形_1001" data-name="長方形 1001" width="2.351" height="2.439" transform="translate(56.555 14.668)" fill="#1a1311"/>
        <rect id="長方形_1002" data-name="長方形 1002" width="2.351" height="2.439" transform="translate(56.555 17.107)" fill="#1a1311"/>
        <rect id="長方形_1003" data-name="長方形 1003" width="2.351" height="2.439" transform="translate(56.555 19.542)" fill="#1a1311"/>
        <rect id="長方形_1004" data-name="長方形 1004" width="2.351" height="2.439" transform="translate(56.555 21.985)" fill="#1a1311"/>
        <rect id="長方形_1005" data-name="長方形 1005" width="2.351" height="2.439" transform="translate(56.555 21.982)" fill="#1a1311"/>
        <rect id="長方形_1006" data-name="長方形 1006" width="2.351" height="2.439" transform="translate(56.555 24.423)" fill="#1a1311"/>
        <rect id="長方形_1007" data-name="長方形 1007" width="2.351" height="2.439" transform="translate(59.738 2.452)" fill="#1a1311"/>
        <rect id="長方形_1008" data-name="長方形 1008" width="2.351" height="2.439" transform="translate(62.089 2.452)" fill="#1a1311"/>
        <rect id="長方形_1009" data-name="長方形 1009" width="2.351" height="2.439" transform="translate(51.938 12.217)" fill="#1a1311"/>
        <rect id="長方形_1010" data-name="長方形 1010" width="2.351" height="2.439" transform="translate(54.288 12.217)" fill="#1a1311"/>
        <rect id="長方形_1011" data-name="長方形 1011" width="2.351" height="2.439" transform="translate(58.99 12.212)" fill="#1a1311"/>
        <rect id="長方形_1012" data-name="長方形 1012" width="2.351" height="2.439" transform="translate(56.639 12.218)" fill="#1a1311"/>
        <rect id="長方形_1013" data-name="長方形 1013" width="2.351" height="2.439" transform="translate(6.968 36.305)" fill="#1a1311"/>
        <rect id="長方形_1014" data-name="長方形 1014" width="2.351" height="2.439" transform="translate(6.968 38.744)" fill="#1a1311"/>
        <rect id="長方形_1015" data-name="長方形 1015" width="2.351" height="2.439" transform="translate(2.351 33.854)" fill="#1a1311"/>
        <rect id="長方形_1016" data-name="長方形 1016" width="2.351" height="2.439" transform="translate(4.702 33.854)" fill="#1a1311"/>
        <rect id="長方形_1017" data-name="長方形 1017" width="2.351" height="2.439" transform="translate(2.351 38.744)" fill="#1a1311"/>
        <rect id="長方形_1018" data-name="長方形 1018" width="2.351" height="2.439" transform="translate(4.702 38.744)" fill="#1a1311"/>
        <rect id="長方形_1019" data-name="長方形 1019" width="2.351" height="2.439" transform="translate(4.617 43.632)" fill="#1a1311"/>
        <rect id="長方形_1020" data-name="長方形 1020" width="2.351" height="2.439" transform="translate(6.968 43.632)" fill="#1a1311"/>
        <rect id="長方形_1021" data-name="長方形 1021" width="2.351" height="2.439" transform="translate(7.052 33.855)" fill="#1a1311"/>
        <rect id="長方形_1022" data-name="長方形 1022" width="2.351" height="2.439" transform="translate(2.309 43.632)" fill="#1a1311"/>
        <rect id="長方形_1023" data-name="長方形 1023" width="2.351" height="2.439" transform="translate(2.393 41.182)" fill="#1a1311"/>
        <rect id="長方形_1024" data-name="長方形 1024" width="2.351" height="2.439" transform="translate(70.293 36.305)" fill="#1a1311"/>
        <rect id="長方形_1025" data-name="長方形 1025" width="2.351" height="2.439" transform="translate(70.293 38.744)" fill="#1a1311"/>
        <rect id="長方形_1026" data-name="長方形 1026" width="2.351" height="2.439" transform="translate(65.675 33.854)" fill="#1a1311"/>
        <rect id="長方形_1027" data-name="長方形 1027" width="2.351" height="2.439" transform="translate(68.026 33.854)" fill="#1a1311"/>
        <rect id="長方形_1028" data-name="長方形 1028" width="2.351" height="2.439" transform="translate(65.675 38.744)" fill="#1a1311"/>
        <rect id="長方形_1029" data-name="長方形 1029" width="2.351" height="2.439" transform="translate(68.026 38.744)" fill="#1a1311"/>
        <rect id="長方形_1030" data-name="長方形 1030" width="2.351" height="2.439" transform="translate(67.942 43.633)" fill="#1a1311"/>
        <rect id="長方形_1031" data-name="長方形 1031" width="2.351" height="2.439" transform="translate(70.293 43.633)" fill="#1a1311"/>
        <rect id="長方形_1032" data-name="長方形 1032" width="2.351" height="2.439" transform="translate(70.377 33.855)" fill="#1a1311"/>
        <rect id="長方形_1033" data-name="長方形 1033" width="2.351" height="2.439" transform="translate(65.633 43.633)" fill="#1a1311"/>
        <rect id="長方形_1034" data-name="長方形 1034" width="2.351" height="2.439" transform="translate(65.717 41.183)" fill="#1a1311"/>
        <rect id="長方形_1035" data-name="長方形 1035" width="2.351" height="2.439" transform="translate(103.972 36.306)" fill="#1a1311"/>
        <rect id="長方形_1036" data-name="長方形 1036" width="2.351" height="2.439" transform="translate(103.972 38.745)" fill="#1a1311"/>
        <rect id="長方形_1037" data-name="長方形 1037" width="2.351" height="2.439" transform="translate(99.355 33.855)" fill="#1a1311"/>
        <rect id="長方形_1038" data-name="長方形 1038" width="2.351" height="2.439" transform="translate(99.355 38.745)" fill="#1a1311"/>
        <rect id="長方形_1039" data-name="長方形 1039" width="2.351" height="2.439" transform="translate(101.706 38.745)" fill="#1a1311"/>
        <rect id="長方形_1040" data-name="長方形 1040" width="2.351" height="2.439" transform="translate(103.972 43.634)" fill="#1a1311"/>
        <rect id="長方形_1041" data-name="長方形 1041" width="2.351" height="2.439" transform="translate(101.706 33.855)" fill="#1a1311"/>
        <rect id="長方形_1042" data-name="長方形 1042" width="2.351" height="2.439" transform="translate(104.015 33.855)" fill="#1a1311"/>
        <rect id="長方形_1043" data-name="長方形 1043" width="2.351" height="2.439" transform="translate(99.334 43.634)" fill="#1a1311"/>
        <rect id="長方形_1044" data-name="長方形 1044" width="2.351" height="2.439" transform="translate(101.685 43.634)" fill="#1a1311"/>
        <rect id="長方形_1045" data-name="長方形 1045" width="2.351" height="2.439" transform="translate(103.993 43.634)" fill="#1a1311"/>
        <rect id="長方形_1046" data-name="長方形 1046" width="2.351" height="2.439" transform="translate(103.972 41.184)" fill="#1a1311"/>
        <rect id="長方形_1047" data-name="長方形 1047" width="2.351" height="2.439" transform="translate(37.573 36.305)" fill="#1a1311"/>
        <rect id="長方形_1048" data-name="長方形 1048" width="2.351" height="2.439" transform="translate(37.573 38.744)" fill="#1a1311"/>
        <rect id="長方形_1049" data-name="長方形 1049" width="2.351" height="2.439" transform="translate(32.955 33.854)" fill="#1a1311"/>
        <rect id="長方形_1050" data-name="長方形 1050" width="2.351" height="2.439" transform="translate(35.306 33.854)" fill="#1a1311"/>
        <rect id="長方形_1051" data-name="長方形 1051" width="2.351" height="2.439" transform="translate(32.955 38.744)" fill="#1a1311"/>
        <rect id="長方形_1052" data-name="長方形 1052" width="2.351" height="2.439" transform="translate(35.222 43.633)" fill="#1a1311"/>
        <rect id="長方形_1053" data-name="長方形 1053" width="2.351" height="2.439" transform="translate(37.573 43.633)" fill="#1a1311"/>
        <rect id="長方形_1054" data-name="長方形 1054" width="2.351" height="2.439" transform="translate(37.657 33.855)" fill="#1a1311"/>
        <rect id="長方形_1055" data-name="長方形 1055" width="2.351" height="2.439" transform="translate(32.997 36.305)" fill="#1a1311"/>
        <rect id="長方形_1056" data-name="長方形 1056" width="2.351" height="2.439" transform="translate(37.573 41.183)" fill="#1a1311"/>
        <rect id="長方形_1057" data-name="長方形 1057" width="2.351" height="2.439" transform="translate(32.913 43.633)" fill="#1a1311"/>
        <rect id="長方形_1058" data-name="長方形 1058" width="2.351" height="2.439" transform="translate(32.997 41.183)" fill="#1a1311"/>
        <rect id="長方形_1059" data-name="長方形 1059" width="2.351" height="2.439" transform="translate(61.341 12.212)" fill="#1a1311"/>
        <rect id="長方形_1060" data-name="長方形 1060" width="2.351" height="2.439" transform="translate(64.439 2.452)" fill="#1a1311"/>
        <rect id="長方形_1061" data-name="長方形 1061" width="2.351" height="2.439" transform="translate(66.351 2.45)" fill="#1a1311"/>
        <rect id="長方形_1062" data-name="長方形 1062" width="2.351" height="2.439" transform="translate(0 9.755)" fill="#1a1311"/>
        <rect id="長方形_1063" data-name="長方形 1063" width="2.351" height="2.439" transform="translate(0 21.948)" fill="#1a1311"/>
        <rect id="長方形_1064" data-name="長方形 1064" width="2.351" height="2.439" transform="translate(0 24.386)" fill="#1a1311"/>
        <rect id="長方形_1065" data-name="長方形 1065" width="2.351" height="2.439" transform="translate(0 26.825)" fill="#1a1311"/>
        <rect id="長方形_1066" data-name="長方形 1066" width="2.351" height="2.439" transform="translate(2.351 2.439)" fill="#1a1311"/>
        <rect id="長方形_1067" data-name="長方形 1067" width="2.351" height="2.439" transform="translate(2.351 9.755)" fill="#1a1311"/>
        <rect id="長方形_1068" data-name="長方形 1068" width="2.351" height="2.439" transform="translate(4.702 2.439)" fill="#1a1311"/>
        <rect id="長方形_1069" data-name="長方形 1069" width="2.351" height="2.439" transform="translate(4.702 9.755)" fill="#1a1311"/>
        <rect id="長方形_1070" data-name="長方形 1070" width="2.351" height="2.439" transform="translate(7.052 9.755)" fill="#1a1311"/>
        <rect id="長方形_1071" data-name="長方形 1071" width="2.351" height="2.439" transform="translate(4.702 21.948)" fill="#1a1311"/>
        <rect id="長方形_1072" data-name="長方形 1072" width="2.351" height="2.439" transform="translate(4.702 24.386)" fill="#1a1311"/>
        <rect id="長方形_1073" data-name="長方形 1073" width="2.351" height="2.439" transform="translate(7.052 2.439)" fill="#1a1311"/>
        <rect id="長方形_1074" data-name="長方形 1074" width="2.351" height="2.439" transform="translate(7.052 4.877)" fill="#1a1311"/>
        <rect id="長方形_1075" data-name="長方形 1075" width="2.351" height="2.439" transform="translate(7.052 7.316)" fill="#1a1311"/>
        <rect id="長方形_1076" data-name="長方形 1076" width="2.351" height="2.439" transform="translate(7.052 12.193)" fill="#1a1311"/>
        <rect id="長方形_1077" data-name="長方形 1077" width="2.351" height="2.439" transform="translate(7.052 14.632)" fill="#1a1311"/>
        <rect id="長方形_1078" data-name="長方形 1078" width="2.351" height="2.439" transform="translate(7.052 17.071)" fill="#1a1311"/>
        <rect id="長方形_1079" data-name="長方形 1079" width="2.351" height="2.439" transform="translate(7.052 19.509)" fill="#1a1311"/>
        <rect id="長方形_1080" data-name="長方形 1080" width="2.351" height="2.439" transform="translate(7.052 26.825)" fill="#1a1311"/>
        <rect id="長方形_1081" data-name="長方形 1081" width="2.351" height="2.439" transform="translate(9.403 2.439)" fill="#1a1311"/>
        <rect id="長方形_1082" data-name="長方形 1082" width="2.351" height="2.439" transform="translate(9.403 9.755)" fill="#1a1311"/>
        <rect id="長方形_1083" data-name="長方形 1083" width="2.351" height="2.439" transform="translate(9.403 14.632)" fill="#1a1311"/>
        <rect id="長方形_1084" data-name="長方形 1084" width="2.351" height="2.439" transform="translate(9.403 19.509)" fill="#1a1311"/>
        <rect id="長方形_1085" data-name="長方形 1085" width="2.351" height="2.439" transform="translate(9.403 26.825)" fill="#1a1311"/>
        <rect id="長方形_1086" data-name="長方形 1086" width="2.351" height="2.439" transform="translate(11.754 0)" fill="#1a1311"/>
        <rect id="長方形_1087" data-name="長方形 1087" width="2.351" height="2.439" transform="translate(11.754 2.439)" fill="#1a1311"/>
        <rect id="長方形_1088" data-name="長方形 1088" width="2.351" height="2.439" transform="translate(11.754 9.755)" fill="#1a1311"/>
        <rect id="長方形_1089" data-name="長方形 1089" width="2.351" height="2.439" transform="translate(11.754 14.632)" fill="#1a1311"/>
        <rect id="長方形_1090" data-name="長方形 1090" width="2.351" height="2.439" transform="translate(11.754 19.509)" fill="#1a1311"/>
        <rect id="長方形_1091" data-name="長方形 1091" width="2.351" height="2.439" transform="translate(11.754 26.825)" fill="#1a1311"/>
        <rect id="長方形_1092" data-name="長方形 1092" width="2.351" height="2.439" transform="translate(14.105 2.439)" fill="#1a1311"/>
        <rect id="長方形_1093" data-name="長方形 1093" width="2.351" height="2.439" transform="translate(14.105 9.755)" fill="#1a1311"/>
        <rect id="長方形_1094" data-name="長方形 1094" width="2.351" height="2.439" transform="translate(14.105 14.632)" fill="#1a1311"/>
        <rect id="長方形_1095" data-name="長方形 1095" width="2.351" height="2.439" transform="translate(14.105 19.509)" fill="#1a1311"/>
        <rect id="長方形_1096" data-name="長方形 1096" width="2.351" height="2.439" transform="translate(14.105 21.948)" fill="#1a1311"/>
        <path id="パス_287" data-name="パス 287" d="M16.456,25.947l-2.351-2.439h2.351Z" transform="translate(0 0.879)" fill="#1a1311"/>
        <path id="パス_288" data-name="パス 288" d="M7.052,28.3,4.7,25.859h2.35Z" transform="translate(0 0.966)" fill="#1a1311"/>
        <path id="パス_289" data-name="パス 289" d="M23.508,25.947l-2.351-2.439h2.351Z" transform="translate(0 0.879)" fill="#1a1311"/>
        <path id="パス_290" data-name="パス 290" d="M14.105,0l2.351,2.439H14.105Z" transform="translate(0)" fill="#1a1311"/>
        <path id="パス_291" data-name="パス 291" d="M21.157,23.6l-2.351-2.439h2.351Z" transform="translate(0 0.791)" fill="#1a1311"/>
        <rect id="長方形_1097" data-name="長方形 1097" width="2.351" height="2.439" transform="translate(14.105 26.825)" fill="#1a1311"/>
        <rect id="長方形_1098" data-name="長方形 1098" width="2.351" height="2.439" transform="translate(16.456 2.439)" fill="#1a1311"/>
        <rect id="長方形_1099" data-name="長方形 1099" width="2.351" height="2.439" transform="translate(16.456 9.755)" fill="#1a1311"/>
        <rect id="長方形_1100" data-name="長方形 1100" width="2.351" height="2.439" transform="translate(18.806 9.755)" fill="#1a1311"/>
        <rect id="長方形_1101" data-name="長方形 1101" width="2.351" height="2.439" transform="translate(16.456 14.632)" fill="#1a1311"/>
        <rect id="長方形_1102" data-name="長方形 1102" width="2.351" height="2.439" transform="translate(16.456 19.509)" fill="#1a1311"/>
        <rect id="長方形_1103" data-name="長方形 1103" width="2.351" height="2.439" transform="translate(16.456 24.386)" fill="#1a1311"/>
        <rect id="長方形_1104" data-name="長方形 1104" width="2.351" height="2.439" transform="translate(16.456 26.825)" fill="#1a1311"/>
        <rect id="長方形_1105" data-name="長方形 1105" width="2.351" height="2.439" transform="translate(18.806 2.439)" fill="#1a1311"/>
        <rect id="長方形_1106" data-name="長方形 1106" width="2.351" height="2.439" transform="translate(18.806 4.877)" fill="#1a1311"/>
        <rect id="長方形_1107" data-name="長方形 1107" width="2.351" height="2.439" transform="translate(18.806 7.316)" fill="#1a1311"/>
        <rect id="長方形_1108" data-name="長方形 1108" width="2.351" height="2.439" transform="translate(18.806 12.193)" fill="#1a1311"/>
        <rect id="長方形_1109" data-name="長方形 1109" width="2.351" height="2.439" transform="translate(18.806 14.632)" fill="#1a1311"/>
        <rect id="長方形_1110" data-name="長方形 1110" width="2.351" height="2.439" transform="translate(18.806 17.071)" fill="#1a1311"/>
        <rect id="長方形_1111" data-name="長方形 1111" width="2.351" height="2.439" transform="translate(18.806 19.509)" fill="#1a1311"/>
        <rect id="長方形_1112" data-name="長方形 1112" width="2.351" height="2.439" transform="translate(18.806 26.825)" fill="#1a1311"/>
        <rect id="長方形_1113" data-name="長方形 1113" width="2.351" height="2.439" transform="translate(21.157 2.439)" fill="#1a1311"/>
        <rect id="長方形_1114" data-name="長方形 1114" width="2.351" height="2.439" transform="translate(21.157 9.755)" fill="#1a1311"/>
        <rect id="長方形_1115" data-name="長方形 1115" width="2.351" height="2.439" transform="translate(21.157 21.948)" fill="#1a1311"/>
        <rect id="長方形_1116" data-name="長方形 1116" width="2.351" height="2.439" transform="translate(21.157 26.825)" fill="#1a1311"/>
        <rect id="長方形_1117" data-name="長方形 1117" width="2.351" height="2.439" transform="translate(23.508 2.439)" fill="#1a1311"/>
        <rect id="長方形_1118" data-name="長方形 1118" width="2.351" height="2.439" transform="translate(23.508 9.755)" fill="#1a1311"/>
        <rect id="長方形_1119" data-name="長方形 1119" width="2.351" height="2.439" transform="translate(23.508 26.825)" fill="#1a1311"/>
        <rect id="長方形_1120" data-name="長方形 1120" width="2.351" height="2.439" transform="translate(11.755 0)" fill="#1a1311"/>
        <rect id="長方形_1121" data-name="長方形 1121" width="2.351" height="2.439" transform="translate(25.859 9.755)" fill="#1a1311"/>
        <rect id="長方形_1122" data-name="長方形 1122" width="2.351" height="2.439" transform="translate(25.859 24.386)" fill="#1a1311"/>
        <rect id="長方形_1123" data-name="長方形 1123" width="2.351" height="2.439" transform="translate(25.859 26.825)" fill="#1a1311"/>
        <path id="パス_292" data-name="パス 292" d="M25.859,23.6l2.351-2.439V23.6Z" transform="translate(0 0.791)" fill="#1a1311"/>
        <text id="TERMINAL" transform="translate(1.94 54.518)" fill="#1a1311" font-size="7" font-family="Futura-Medium, Futura" font-weight="500" letter-spacing="0.783em"><tspan x="0" y="0">TERMINAL</tspan></text>
      </g>
    </g>
  </g>
</svg>
